<svg xmlns="http://www.w3.org/2000/svg" viewBox="0 0 1200 620" width="1200" height="620" font-family="Arial, Helvetica, sans-serif">
  <rect width="1200" height="620" fill="#FFFFFF"/>
  <defs>
    <marker id="arrow-default" markerWidth="10" markerHeight="10" refX="8" refY="4" orient="auto" markerUnits="strokeWidth">
      <polygon points="0 0, 8 4, 0 8" fill="#555555"/>
    </marker>
    <marker id="arrow-c0" markerWidth="10" markerHeight="10" refX="8" refY="4" orient="auto" markerUnits="strokeWidth">
      <polygon points="0 0, 8 4, 0 8" fill="#3E6FA8"/>
    </marker>
    <marker id="arrow-c1" markerWidth="10" markerHeight="10" refX="8" refY="4" orient="auto" markerUnits="strokeWidth">
      <polygon points="0 0, 8 4, 0 8" fill="#4E9A66"/>
    </marker>
    <marker id="arrow-c2" markerWidth="10" markerHeight="10" refX="8" refY="4" orient="auto" markerUnits="strokeWidth">
      <polygon points="0 0, 8 4, 0 8" fill="#C9952C"/>
    </marker>
    <marker id="arrow-c3" markerWidth="10" markerHeight="10" refX="8" refY="4" orient="auto" markerUnits="strokeWidth">
      <polygon points="0 0, 8 4, 0 8" fill="#6F62A9"/>
    </marker>
    <marker id="arrow-c4" markerWidth="10" markerHeight="10" refX="8" refY="4" orient="auto" markerUnits="strokeWidth">
      <polygon points="0 0, 8 4, 0 8" fill="#C96E80"/>
    </marker>
    <marker id="arrow-c5" markerWidth="10" markerHeight="10" refX="8" refY="4" orient="auto" markerUnits="strokeWidth">
      <polygon points="0 0, 8 4, 0 8" fill="#4BA7A8"/>
    </marker>
  </defs>
  <rect x="30.0" y="91.0" width="510.0" height="420.0" fill="#F6F7F9" stroke="#C6CCD6" stroke-width="1" rx="8"/>
  <text x="38.0" y="107.0" font-size="13" fill="#999999" font-weight="bold">A. Four-regime configuration-action fabric</text>
  <rect x="577.0" y="71.0" width="588.5" height="358.0" fill="#FFFFFF" stroke="#D4DAE3" stroke-width="1" rx="8"/>
  <text x="585.0" y="87.0" font-size="13" fill="#999999" font-weight="bold">B. Measured candidate certificate chain</text>
  <rect x="584.5" y="449.0" width="583.5" height="122.0" fill="#FFFFFF" stroke="#D4DAE3" stroke-width="1" rx="8"/>
  <text x="592.5" y="465.0" font-size="13" fill="#999999" font-weight="bold">C. Claim boundary</text>
  <path d="M 184.6,209.0 L 264.6,389.0" stroke="#9AA4B2" stroke-width="2" fill="none" marker-end="url(#arrow-default)"/>
  <path d="M 385.4,209.0 L 305.4,389.0" stroke="#9AA4B2" stroke-width="2" fill="none" marker-end="url(#arrow-default)"/>
  <path d="M 205.6,349.0 L 242.5,389.0" stroke="#9AA4B2" stroke-width="2" fill="none" marker-end="url(#arrow-default)"/>
  <path d="M 364.4,349.0 L 327.5,389.0" stroke="#9AA4B2" stroke-width="2" fill="none" marker-end="url(#arrow-default)"/>
  <path d="M 765.0,135.0 L 790.0,135.0" stroke="#6E7480" stroke-width="2" fill="none" marker-end="url(#arrow-default)"/>
  <rect x="748.3" y="117.0" width="58.4" height="16" fill="#FFFFFF" rx="3" opacity="0.85"/>
  <text x="777.5" y="129.0" font-size="12" fill="#777777" text-anchor="middle">profile</text>
  <path d="M 950.0,135.0 L 980.0,135.0" stroke="#6E7480" stroke-width="2" fill="none" marker-end="url(#arrow-default)"/>
  <rect x="943.0" y="117.0" width="44.0" height="16" fill="#FFFFFF" rx="3" opacity="0.85"/>
  <text x="965.0" y="129.0" font-size="12" fill="#777777" text-anchor="middle">admit</text>
  <path d="M 870.0,211.0 Q 900.0,191.0 870.0,171.0" stroke="#6F62A9" stroke-width="2" fill="none" marker-end="url(#arrow-c3)" stroke-dasharray="8,4"/>
  <rect x="845.0" y="173.0" width="80.0" height="16" fill="#FFFFFF" rx="3" opacity="0.85"/>
  <text x="885.0" y="185.0" font-size="12" fill="#777777" text-anchor="middle">same units</text>
  <path d="M 995.3,171.0 Q 858.7,218.3 753.0,317.0" stroke="#6E7480" stroke-width="2" fill="none" marker-end="url(#arrow-default)"/>
  <rect x="844.4" y="213.2" width="44.0" height="16" fill="#FFFFFF" rx="3" opacity="0.85"/>
  <text x="866.4" y="225.2" font-size="12" fill="#777777" text-anchor="middle">score</text>
  <path d="M 775.0,355.0 L 787.5,355.0" stroke="#6E7480" stroke-width="2" fill="none" marker-end="url(#arrow-default)"/>
  <path d="M 952.5,355.0 L 972.5,355.0" stroke="#4E9A66" stroke-width="2" fill="none" marker-end="url(#arrow-c1)"/>
  <rect x="933.3" y="337.0" width="58.4" height="16" fill="#FFFFFF" rx="3" opacity="0.85"/>
  <text x="962.5" y="349.0" font-size="12" fill="#777777" text-anchor="middle">eta &gt; 0</text>
  <path d="M 767.5,510.0 L 792.5,510.0" stroke="#9AA4B2" stroke-width="2" fill="none" marker-end="url(#arrow-default)"/>
  <path d="M 947.5,510.0 L 970.0,510.0" stroke="#9AA4B2" stroke-width="2" fill="none" marker-end="url(#arrow-default)"/>
  <rect x="60.0" y="121.0" width="210.0" height="88.0" fill="#DDEEDF" stroke="#4E9A66" stroke-width="2" rx="8"/>
  <text x="165.0" y="161.0" font-size="20" fill="#333333" text-anchor="middle" font-weight="bold">q10</text>
  <text x="165.0" y="183.0" font-size="17" fill="#888888" text-anchor="middle">CPU / data
host-bound</text>
  <rect x="300.0" y="121.0" width="210.0" height="88.0" fill="#E8E3F4" stroke="#6F62A9" stroke-width="2" rx="8"/>
  <text x="405.0" y="161.0" font-size="20" fill="#333333" text-anchor="middle" font-weight="bold">q11</text>
  <text x="405.0" y="183.0" font-size="17" fill="#888888" text-anchor="middle">hybrid RL
CPU + GPU</text>
  <rect x="60.0" y="261.0" width="210.0" height="88.0" fill="#F6E7BD" stroke="#C9952C" stroke-width="2" rx="8"/>
  <text x="165.0" y="301.0" font-size="20" fill="#333333" text-anchor="middle" font-weight="bold">q00</text>
  <text x="165.0" y="323.0" font-size="17" fill="#888888" text-anchor="middle">light-control
small jobs</text>
  <rect x="300.0" y="261.0" width="210.0" height="88.0" fill="#DCE9F7" stroke="#3E6FA8" stroke-width="2" rx="8"/>
  <text x="405.0" y="301.0" font-size="20" fill="#333333" text-anchor="middle" font-weight="bold">q01</text>
  <text x="405.0" y="323.0" font-size="17" fill="#888888" text-anchor="middle">GPU-heavy
kernels</text>
  <rect x="182.5" y="389.0" width="205.0" height="92.0" fill="#24272B" stroke="#24272B" stroke-width="2" rx="8"/>
  <text x="285.0" y="421.9" font-size="17" fill="#FFFFFF" text-anchor="middle" font-weight="bold">configuration</text>
  <text x="285.0" y="440.9" font-size="17" fill="#FFFFFF" text-anchor="middle" font-weight="bold">action a</text>
  <text x="285.0" y="459.9" font-size="14" fill="#888888" text-anchor="middle">placement + profile
+ admission + drain</text>
  <rect x="615.0" y="99.0" width="150.0" height="72.0" fill="#F6F7F9" stroke="#AEB6C2" stroke-width="2" rx="8"/>
  <text x="690.0" y="122.6" font-size="16" fill="#333333" text-anchor="middle" font-weight="bold">full action</text>
  <text x="690.0" y="140.6" font-size="16" fill="#333333" text-anchor="middle" font-weight="bold">space</text>
  <text x="690.0" y="158.6" font-size="13" fill="#888888" text-anchor="middle">combinatorial configurations</text>
  <rect x="790.0" y="99.0" width="160.0" height="72.0" fill="#DCE9F7" stroke="#3E6FA8" stroke-width="2" rx="8"/>
  <text x="870.0" y="122.6" font-size="16" fill="#333333" text-anchor="middle" font-weight="bold">measured</text>
  <text x="870.0" y="140.6" font-size="16" fill="#333333" text-anchor="middle" font-weight="bold">service cache</text>
  <text x="870.0" y="158.6" font-size="13" fill="#888888" text-anchor="middle">lower-service rows</text>
  <rect x="980.0" y="99.0" width="150.0" height="72.0" fill="#F5DDE3" stroke="#C96E80" stroke-width="2" rx="8"/>
  <text x="1055.0" y="122.6" font-size="16" fill="#333333" text-anchor="middle" font-weight="bold">candidate</text>
  <text x="1055.0" y="140.6" font-size="16" fill="#333333" text-anchor="middle" font-weight="bold">family</text>
  <text x="1055.0" y="158.6" font-size="13" fill="#888888" text-anchor="middle">finite action set</text>
  <rect x="782.5" y="211.0" width="175.0" height="68.0" fill="#E8E3F4" stroke="#6F62A9" stroke-width="2" rx="8"/>
  <text x="870.0" y="233.2" font-size="15" fill="#333333" text-anchor="middle" font-weight="bold">external policy</text>
  <text x="870.0" y="250.2" font-size="15" fill="#333333" text-anchor="middle" font-weight="bold">semantics</text>
  <text x="870.0" y="267.2" font-size="12" fill="#888888" text-anchor="middle">diagnostic rows only</text>
  <rect x="605.0" y="317.0" width="170.0" height="76.0" fill="#DCE9F7" stroke="#3E6FA8" stroke-width="2" rx="8"/>
  <text x="690.0" y="342.6" font-size="16" fill="#333333" text-anchor="middle" font-weight="bold">robust</text>
  <text x="690.0" y="360.6" font-size="16" fill="#333333" text-anchor="middle" font-weight="bold">MaxWeight score</text>
  <text x="690.0" y="378.6" font-size="13" fill="#888888" text-anchor="middle">Q · lower service - penalty</text>
  <polygon points="870.0,309.0 952.5,355.0 870.0,401.0 787.5,355.0" fill="#DDEEDF" stroke="#4E9A66" stroke-width="2"/>
  <text x="870.0" y="351.6" font-size="16" fill="#333333" text-anchor="middle" font-weight="bold">slack gate</text>
  <text x="870.0" y="369.6" font-size="13" fill="#888888" text-anchor="middle">eta = delta - certified losses</text>
  <rect x="972.5" y="317.0" width="165.0" height="76.0" fill="#DDEEDF" stroke="#4E9A66" stroke-width="2" rx="8"/>
  <text x="1055.0" y="342.6" font-size="16" fill="#333333" text-anchor="middle" font-weight="bold">stability</text>
  <text x="1055.0" y="360.6" font-size="16" fill="#333333" text-anchor="middle" font-weight="bold">certificate</text>
  <text x="1055.0" y="378.6" font-size="13" fill="#888888" text-anchor="middle">finite-set Foster recurrence</text>
  <rect x="612.5" y="477.0" width="155.0" height="66.0" fill="#DDEEDF" stroke="#4E9A66" stroke-width="2" rx="8"/>
  <text x="690.0" y="506.8" font-size="15" fill="#333333" text-anchor="middle" font-weight="bold">proved</text>
  <text x="690.0" y="523.8" font-size="12" fill="#888888" text-anchor="middle">measured finite slice</text>
  <rect x="792.5" y="477.0" width="155.0" height="66.0" fill="#F6F7F9" stroke="#AEB6C2" stroke-width="2" rx="8"/>
  <text x="870.0" y="506.8" font-size="15" fill="#333333" text-anchor="middle" font-weight="bold">trace-only</text>
  <text x="870.0" y="523.8" font-size="12" fill="#888888" text-anchor="middle">live hook evidence</text>
  <rect x="970.0" y="477.0" width="170.0" height="66.0" fill="#F7D9D7" stroke="#B84643" stroke-width="2" rx="8"/>
  <text x="1055.0" y="506.8" font-size="15" fill="#333333" text-anchor="middle" font-weight="bold">not claimed</text>
  <text x="1055.0" y="523.8" font-size="12" fill="#888888" text-anchor="middle">arbitrary future / universal SOTA</text>
  <text x="40.0" y="34.0" font-size="24" fill="#24272B" text-anchor="start">Scheduleurm: deterministic FigureSpec view of the robust candidate certificate</text>
  <text x="1180.0" y="590.0" font-size="13" fill="#6E7480" text-anchor="end">External policies enter as finite diagnostic rows on the same measured service cache, not as universal full-stack baselines.</text>
</svg>
